<svg xmlns="http://www.w3.org/2000/svg" version="1.1" xmlns:xlink="http://www.w3.org/1999/xlink" xmlns:svgjs="http://svgjs.dev/svgjs" width="1500" height="1500" viewBox="0 0 1500 1500"><rect width="1500" height="1500" fill="#ffffff"></rect><g transform="matrix(0.6666666666666666,0,0,0.6666666666666666,249.7940229680574,311.02240215924434)"><svg viewBox="0 0 281 247" data-background-color="#ffffff" preserveAspectRatio="xMidYMid meet" height="1318" width="1500" xmlns="http://www.w3.org/2000/svg" xmlns:xlink="http://www.w3.org/1999/xlink"><g id="tight-bounds" transform="matrix(1,0,0,1,0.05787954597587941,-0.09999999999999432)"><svg viewBox="0 0 280.88424090804824 247.2" height="247.2" width="280.88424090804824"><g><svg viewBox="0 0 397.4976 349.8288348336615" height="247.2" width="280.88424090804824"><g><rect width="397.4976" height="10.007106848103474" x="0" y="179.55282902896784" fill="#919591" opacity="1" stroke-width="0" stroke="transparent" fill-opacity="1" class="rect-qz-0" data-fill-palette-color="primary" rx="1%" id="qz-0" data-palette-color="#919591"></rect></g><g><rect width="397.4976" height="10.007106848103474" x="0" y="202.6582432698769" fill="#919591" opacity="1" stroke-width="0" stroke="transparent" fill-opacity="1" class="rect-qz-1" data-fill-palette-color="primary" rx="1%" id="qz-1" data-palette-color="#919591"></rect></g><g transform="matrix(1,0,0,1,0.9887999999999693,238.86196490359154)"><svg viewBox="0 0 395.52000000000004 110.96686993006993" height="110.96686993006993" width="395.52000000000004"><g id="textblocktransform"><svg viewBox="0 0 395.52000000000004 110.96686993006993" height="110.96686993006993" width="395.52000000000004" id="textblock"><g><svg viewBox="0 0 395.52000000000004 110.96686993006993" height="110.96686993006993" width="395.52000000000004"><g transform="matrix(1,0,0,1,0,0)"><svg width="395.52000000000004" viewBox="0 -36.04 174.54 48.98" height="110.96686993006993" data-palette-color="#919591"><path d="M0.49-32.76L0.49-32.76 0-34.96 18.65-36.04Q19.87-35.99 20.7-35.16 21.53-34.33 21.53-33.35L21.53-33.35Q21.53-32.71 21.04-32.23 20.56-31.74 19.58-31.64L19.58-31.64 11.38-32.08Q12.6-14.84 13.18-0.73L13.18-0.73Q12.74 0.73 11.52 0.73L11.52 0.73Q10.64 0.73 9.81 0.02 8.98-0.68 8.79-1.71L8.79-1.71Q8.89-4.35 8.89-9.72L8.89-9.72Q8.89-11.72 8.86-15.72 8.84-19.73 8.84-21.73L8.84-21.73Q8.84-27.54 9.03-32.23L9.03-32.23Q3.52-32.62 0.49-32.76ZM38.77-4.74L38.77-4.74 39.26-2.59Q37.11-1.81 32.88-0.85 28.66 0.1 26.61 0.1L26.61 0.1Q24.51 0.1 22.95-1.29 21.38-2.69 20.6-4.86 19.82-7.03 19.46-9.16 19.09-11.28 19.09-13.33L19.09-13.33Q19.09-25.54 30.12-25.54L30.12-25.54Q32.76-25.54 34.76-23.85 36.77-22.17 36.77-19.48L36.77-19.48Q36.77-18.02 35.96-16.89 35.15-15.77 34.01-15.11 32.86-14.45 31.08-13.92 29.29-13.38 27.93-13.13 26.56-12.89 24.66-12.6 22.75-12.3 22.02-12.16L22.02-12.16Q22.07-10.74 22.19-9.67 22.31-8.59 22.68-7.35 23.04-6.1 23.65-5.3 24.27-4.49 25.34-3.96 26.41-3.42 27.88-3.42L27.88-3.42Q29.64-3.42 32.18-3.74 34.71-4.05 36.69-4.39 38.67-4.74 38.77-4.74ZM22.21-15.19L22.21-15.19Q28.85-17.09 33.1-19.19L33.1-19.19Q32.76-20.8 32.18-21.53 31.59-22.27 30.42-22.27L30.42-22.27Q27.44-22.27 25.02-20.21 22.6-18.16 22.21-15.19ZM56.1-25.2L56.1-25.2 58.3-25.68Q58.3-24.22 58.34-23.39L58.34-23.39Q58.64-12.7 58.64-9.47L58.64-9.47Q58.64-8.35 58.69-5.96 58.74-3.56 58.74-2.34L58.74-2.34Q58.74 0.34 58.56 2.29 58.39 4.25 57.81 6.37 57.22 8.5 56.22 9.84 55.22 11.18 53.39 12.06 51.56 12.94 49.07 12.94L49.07 12.94Q46.92 12.94 41.5 12.3L41.5 12.3Q41.45 11.77 41.33 11.13 41.21 10.5 41.21 10.16L41.21 10.16Q41.21 9.42 41.35 8.98L41.35 8.98Q41.74 9.03 44.4 9.38 47.07 9.72 48.33 9.72L48.33 9.72Q51.7 9.72 53.51 7.67 55.32 5.62 55.37 0L55.37 0Q52.97 1.37 50.34 1.37L50.34 1.37Q48.14 1.37 46.48 0.46 44.82-0.44 43.84-1.83 42.87-3.22 42.26-5.2 41.65-7.18 41.43-9.03 41.21-10.89 41.21-12.99L41.21-12.99Q41.21-18.26 43.53-21.83 45.84-25.39 50.58-25.39L50.58-25.39Q53.36-25.39 56.05-23.68L56.05-23.68Q56.1-24.17 56.1-25.2ZM55.51-4.74L55.51-4.74 55.66-20.51Q55.37-21.39 53.83-21.9 52.29-22.41 50.43-22.41L50.43-22.41Q47.8-22.41 46.33-20 44.87-17.58 44.87-14.11L44.87-14.11Q44.87-12.3 45.06-10.57 45.26-8.84 45.84-6.76 46.43-4.69 47.75-3.42 49.07-2.15 51.02-2.15L51.02-2.15Q52.49-2.15 53.71-2.86 54.93-3.56 55.51-4.74ZM62.74-2.34L63.81-33.5 66.06-33.01 67.13-1.42Q66.69 0.1 65.42 0.1L65.42 0.1Q64.54 0.1 63.74-0.61 62.93-1.32 62.74-2.34L62.74-2.34ZM90.81-4.74L90.81-4.74 91.3-2.59Q89.15-1.81 84.93-0.85 80.7 0.1 78.65 0.1L78.65 0.1Q76.55 0.1 74.99-1.29 73.43-2.69 72.65-4.86 71.87-7.03 71.5-9.16 71.13-11.28 71.13-13.33L71.13-13.33Q71.13-25.54 82.17-25.54L82.17-25.54Q84.8-25.54 86.81-23.85 88.81-22.17 88.81-19.48L88.81-19.48Q88.81-18.02 88-16.89 87.2-15.77 86.05-15.11 84.9-14.45 83.12-13.92 81.34-13.38 79.97-13.13 78.6-12.89 76.7-12.6 74.79-12.3 74.06-12.16L74.06-12.16Q74.11-10.74 74.23-9.67 74.36-8.59 74.72-7.35 75.09-6.1 75.7-5.3 76.31-4.49 77.38-3.96 78.46-3.42 79.92-3.42L79.92-3.42Q81.68-3.42 84.22-3.74 86.76-4.05 88.74-4.39 90.71-4.74 90.81-4.74ZM74.26-15.19L74.26-15.19Q80.9-17.09 85.15-19.19L85.15-19.19Q84.8-20.8 84.22-21.53 83.63-22.27 82.46-22.27L82.46-22.27Q79.48-22.27 77.07-20.21 74.65-18.16 74.26-15.19ZM109.36-18.6L109.36-18.6 107.21-18.75Q106.19-21.48 103.75-21.48L103.75-21.48Q102.67-21.48 101.48-21 100.28-20.51 99.5-20 98.72-19.48 97.45-18.51L97.45-18.51Q97.45-17.82 97.42-14.06 97.4-10.3 97.47-5.71 97.55-1.12 97.64-0.78L97.64-0.78Q97.2 0.68 95.93 0.68L95.93 0.68Q95.06 0.68 94.25-0.02 93.44-0.73 93.25-1.76L93.25-1.76Q94.18-17.43 94.91-25.44L94.91-25.44 97.11-24.95 97.25-21.68Q100.67-24.51 103.11-24.51L103.11-24.51Q105.8-24.51 107.63-23.29 109.46-22.07 109.46-19.73L109.46-19.73Q109.46-18.99 109.36-18.6ZM111.41-10.4L111.41-10.4Q111.41-12.35 111.83-14.75 112.24-17.14 113.07-19.78 113.9-22.41 115.56-24.17 117.22-25.93 119.42-25.93L119.42-25.93Q124.11-25.93 126.94-21.7 129.77-17.48 129.77-12.3L129.77-12.3Q129.77-10.11 129.31-7.93 128.84-5.76 127.87-3.66 126.89-1.56 125.06-0.17 123.23 1.22 120.79 1.42L120.79 1.42Q116.29 0.83 113.85-2.42 111.41-5.66 111.41-10.4ZM119.71-23.39L119.71-23.39Q118-23.19 116.83-20.26 115.66-17.33 115.32-14.58 114.98-11.82 114.98-9.72L114.98-9.72Q114.98-6.98 116.66-4.66 118.34-2.34 120.44-2.34L120.44-2.34Q121.96-2.34 123.18-3.52 124.4-4.69 125.11-6.42 125.82-8.15 126.18-9.91 126.55-11.67 126.55-13.04L126.55-13.04Q126.55-17.04 124.74-20.02 122.93-23 119.71-23.39ZM137.04-19.53L137.04-19.53 137.24-0.2Q136.51 0.2 135.48 0.2L135.48 0.2Q134.7 0.2 133.72-0.05L133.72-0.05Q133.87-3.13 133.92-12.16 133.97-21.19 134.31-25.54L134.31-25.54 136.51-25.05 136.65-22.31Q139.24-25.05 142.61-25.05L142.61-25.05Q144.32-25.05 145.34-24.8 146.37-24.56 147.32-23.61 148.27-22.66 148.76-21.09 149.25-19.53 149.64-16.63 150.03-13.72 150.2-9.84 150.37-5.96 150.42-0.05L150.42-0.05Q150.13 0.05 149.3 0.05L149.3 0.05Q147.54 0.05 146.56-0.39L146.56-0.39Q146.37-1.17 146.37-2.98L146.37-2.98Q146.37-3.91 146.44-6.47 146.52-9.03 146.52-10.45L146.52-10.45Q146.52-12.79 146.34-14.55 146.17-16.31 145.71-18.02 145.25-19.73 144.29-20.65 143.34-21.58 141.93-21.58L141.93-21.58Q140.31-21.58 139.41-21.34 138.51-21.09 138.14-20.75 137.78-20.41 137.04-19.53ZM174.05-4.74L174.05-4.74 174.54-2.59Q172.39-1.81 168.17-0.85 163.94 0.1 161.89 0.1L161.89 0.1Q159.79 0.1 158.23-1.29 156.67-2.69 155.89-4.86 155.11-7.03 154.74-9.16 154.37-11.28 154.37-13.33L154.37-13.33Q154.37-25.54 165.41-25.54L165.41-25.54Q168.05-25.54 170.05-23.85 172.05-22.17 172.05-19.48L172.05-19.48Q172.05-18.02 171.24-16.89 170.44-15.77 169.29-15.11 168.14-14.45 166.36-13.92 164.58-13.38 163.21-13.13 161.85-12.89 159.94-12.6 158.04-12.3 157.3-12.16L157.3-12.16Q157.35-10.74 157.48-9.67 157.6-8.59 157.96-7.35 158.33-6.1 158.94-5.3 159.55-4.49 160.62-3.96 161.7-3.42 163.16-3.42L163.16-3.42Q164.92-3.42 167.46-3.74 170-4.05 171.98-4.39 173.95-4.74 174.05-4.74ZM157.5-15.19L157.5-15.19Q164.14-17.09 168.39-19.19L168.39-19.19Q168.05-20.8 167.46-21.53 166.87-22.27 165.7-22.27L165.7-22.27Q162.72-22.27 160.31-20.21 157.89-18.16 157.5-15.19Z" opacity="1" transform="matrix(1,0,0,1,0,0)" fill="#919591" class="wordmark-text-0" data-fill-palette-color="primary" id="text-0"></path></svg></g></svg></g></svg></g></svg></g><g transform="matrix(1,0,0,1,157.0857529174253,0)"><svg viewBox="0 0 83.32609416514937 153.35621424335665" height="153.35621424335665" width="83.32609416514937"><g><svg xmlns="http://www.w3.org/2000/svg" xmlns:xlink="http://www.w3.org/1999/xlink" version="1.1" x="0" y="0" viewBox="25.6551195288422 5.194474124669751 48.68991176488384 89.61059095493573" enable-background="new 0 0 100 100" xml:space="preserve" height="153.35621424335665" width="83.32609416514937" class="icon-icon-0" data-fill-palette-color="accent" id="icon-0"><g fill="#636365" data-fill-palette-color="accent"><path d="M70.714 7.348c-0.028-0.003-8.957-2.069-20.337-2.151C38.989 5.113 30.126 7.152 30.109 7.155c-0.244 0.055-0.397 0.287-0.366 0.533l0.386 2.499c0.04 0.235 0.234 0.398 0.466 0.397 0.017 0 0.031 0.005 0.052 0 0.002 0.002 2.611-0.257 6.311-0.509 3.703-0.252 8.487-0.489 12.824-0.462l1.437 0.014c4.327 0.032 9.12 0.344 12.816 0.653 3.698 0.299 6.304 0.598 6.31 0.601 0.123 0.014 0.251-0.025 0.348-0.105 0.1-0.082 0.172-0.202 0.179-0.328l0.209-2.599C71.09 7.616 70.937 7.4 70.714 7.348z" fill="#636365" data-fill-palette-color="accent"></path><path d="M73.965 70.867c-0.189-1.657-0.393-2.91-0.385-3.329l0.193-26.611c0.006-0.545 0.027-1.307 0.03-2.204 0.017-2.675-0.051-6.49-0.969-9.156-0.618-1.778-1.678-3.409-2.585-4.867-0.916-1.452-1.665-2.74-1.729-3.666-0.062-0.716-0.079-1.415-0.069-2.027 0-0.784 0.041-1.428 0.071-1.778 0.063-0.027 0.151-0.057 0.23-0.1 0.29-0.137 0.692-0.486 0.699-1.046-0.007-0.188-0.045-0.378-0.124-0.576-0.117-0.319-0.437-0.496-0.554-0.52-0.08-0.252-0.1-0.537-0.096-0.792 0.004-0.233 0.026-0.445 0.046-0.591 0.023-0.151 0.049-0.225 0.049-0.225 0.02-0.127 0-0.263-0.074-0.366-0.08-0.109-0.195-0.177-0.321-0.189-0.006-0.003-9.409-1.072-17.245-1.128l-1.306-0.012c-7.834-0.061-17.25 0.875-17.257 0.875-0.132 0.011-0.248 0.079-0.329 0.184-0.074 0.104-0.094 0.238-0.069 0.363 0 0 0.015 0.08 0.037 0.227 0.022 0.151 0.037 0.359 0.04 0.597-0.002 0.252-0.031 0.535-0.104 0.784-0.043 0.016-0.105 0.04-0.181 0.076-0.149 0.074-0.31 0.238-0.382 0.439-0.084 0.193-0.133 0.382-0.132 0.571-0.006 0.563 0.392 0.915 0.68 1.06 0.081 0.042 0.16 0.075 0.225 0.101 0.025 0.357 0.058 0.996 0.054 1.784-0.006 0.612-0.031 1.308-0.103 2.024-0.076 0.922-0.846 2.2-1.789 3.637-0.93 1.443-2.009 3.06-2.65 4.829-0.961 2.657-1.084 6.464-1.107 9.143-0.004 0.896-0.005 1.659-0.005 2.206l-0.193 26.612c-0.004 0.413-0.217 1.664-0.442 3.319-0.218 1.665-0.445 3.785-0.463 6.105-0.024 3.566 0.436 7.61 2.198 11.197 1.481 3.007 4.203 4.731 7.179 5.688 2.986 0.96 6.26 1.192 8.982 1.209 2.174 0.018 4.004-0.098 4.999-0.092l1.702 0.016c0.997 0.001 2.823 0.149 4.996 0.166 2.725 0.017 6.005-0.162 9.01-1.081 2.989-0.913 5.738-2.594 7.261-5.582 1.815-3.561 2.326-7.602 2.361-11.161C74.361 74.663 74.165 72.533 73.965 70.867zM37.308 81.328l0.188-25.01c0 0 0.14-19.958 0.153-21.612 0.018-1.396 1.167-2.467 2.502-2.455l0.006 0c0.744 0.004 1.35 0.143 1.754 0.475 0.4 0.327 0.694 0.896 0.699 2.017-0.019 2.401-0.163 21.611-0.163 21.611l-0.183 25.01c-0.013 1.394-1.167 2.467-2.499 2.462-0.746-0.005-1.365-0.147-1.769-0.479C37.599 83.014 37.311 82.454 37.308 81.328z" fill="#636365" data-fill-palette-color="accent"></path></g></svg></g></svg></g><g></g></svg></g><defs></defs></svg><rect width="280.88424090804824" height="247.2" fill="none" stroke="none" visibility="hidden"></rect></g></svg></g></svg>